<?xml version="1.0" encoding="UTF-8"?>
<svg xmlns="http://www.w3.org/2000/svg" viewBox="0 0 800 800">
  <defs>
    <linearGradient id="bg" x1="0%" y1="0%" x2="100%" y2="100%">
      <stop offset="0%" style="stop-color:#f5f5f5"/>
      <stop offset="100%" style="stop-color:#e0e0e0"/>
    </linearGradient>
  </defs>
  
  <!-- Background Circle -->
  <circle cx="400" cy="400" r="400" fill="url(#bg)"/>
  
  <!-- Suit -->
  <path d="M250 450 C250 450 350 800 400 800 C450 800 550 450 550 450 L450 400 L400 600 L350 400 Z" fill="#424242"/>
  
  <!-- Neck -->
  <path d="M350 400 C350 400 400 450 450 400 C450 350 400 300 400 300 C400 300 350 350 350 400" fill="#ffd700"/>
  
  <!-- Head -->
  <circle cx="400" cy="250" r="150" fill="#ffd700"/>
  
  <!-- Hair -->
  <path d="M250 200 C250 150 300 100 400 100 C500 100 550 150 550 200 C550 250 500 300 400 300 C300 300 250 250 250 200" fill="#424242"/>
  
  <!-- Eyes -->
  <g fill="#424242">
    <circle cx="350" cy="230" r="10"/>
    <circle cx="450" cy="230" r="10"/>
  </g>
  
  <!-- Smile -->
  <path d="M350 280 C350 280 400 320 450 280" fill="none" stroke="#424242" stroke-width="8" stroke-linecap="round"/>
  
  <!-- Tie -->
  <path d="M380 400 L400 450 L420 400 L400 600 Z" fill="#f44336"/>
</svg>