<?xml version="1.0" encoding="UTF-8"?>
<svg width="800" height="600" viewBox="0 0 800 600" xmlns="http://www.w3.org/2000/svg">
    <!-- 背景 -->
    <rect width="800" height="600" fill="#f5f7fa"/>
    
    <!-- 电瓶外壳 -->
    <rect x="300" y="200" width="200" height="250" rx="10" fill="#495057"/>
    
    <!-- 电池正负极 -->
    <rect x="340" y="180" width="40" height="20" fill="#e03131"/>
    <rect x="420" y="180" width="40" height="20" fill="#1971c2"/>
    
    <!-- 电量指示 -->
    <rect x="320" y="240" width="160" height="170" rx="5" fill="#ffffff"/>
    <rect x="330" y="250" width="140" height="150" rx="3" fill="#51cf66" opacity="0.8"/>
    
    <!-- 闪电图标 -->
    <path d="M380 270 L420 270 L400 320 L440 320 L370 390 L390 330 L350 330 Z" fill="#ffd43b"/>
    
    <!-- 救援图标 -->
    <circle cx="400" y="450" r="30" fill="#2962ff" opacity="0.1"/>
    <path d="M385 440 L415 440 L415 460 L385 460 Z M390 430 L410 430 L410 440 L390 440 Z" fill="#2962ff"/>
    
    <!-- 文本 -->
    <text x="400" y="520" font-family="Arial" font-size="24" fill="#495057" text-anchor="middle">电瓶救援服务</text>
</svg>