<?xml version="1.0" encoding="UTF-8"?>
<svg xmlns="http://www.w3.org/2000/svg" viewBox="0 0 800 600">
  <defs>
    <linearGradient id="bg" x1="0%" y1="0%" x2="100%" y2="100%">
      <stop offset="0%" style="stop-color:#f5f5f5"/>
      <stop offset="100%" style="stop-color:#e0e0e0"/>
    </linearGradient>
  </defs>
  
  <!-- Background -->
  <rect width="800" height="600" fill="url(#bg)"/>
  
  <!-- Car Body -->
  <path d="M100 300 C100 300 200 280 300 280 L500 280 C600 280 700 300 700 300 L720 350 C720 350 680 380 650 380 L150 380 C120 380 80 350 80 350 Z" fill="#2196f3" stroke="#1976d2" stroke-width="4"/>
  
  <!-- Windows -->
  <path d="M300 280 L320 230 L480 230 L500 280 Z" fill="#90caf9" stroke="#1976d2" stroke-width="2"/>
  
  <!-- Wheels -->
  <g fill="#424242" stroke="#212121" stroke-width="3">
    <circle cx="200" cy="380" r="50"/>
    <circle cx="600" cy="380" r="50"/>
    <circle cx="200" cy="380" r="25" fill="#757575"/>
    <circle cx="600" cy="380" r="25" fill="#757575"/>
  </g>
  
  <!-- Tools -->
  <g transform="translate(350,150) rotate(-15)">
    <rect width="15" height="80" fill="#f44336" rx="3"/>
    <rect x="-5" y="65" width="25" height="25" fill="#d32f2f" rx="3"/>
  </g>
  
  <g transform="translate(420,140) rotate(15)">
    <rect width="15" height="70" fill="#ffc107" rx="3"/>
    <circle cx="7.5" cy="10" r="10" fill="#ffa000"/>
  </g>
  
  <!-- Oil Drop -->
  <g transform="translate(380,450)">
    <path d="M0 0 L15 -25 L30 0 Z" fill="#424242"/>
    <circle cx="15" cy="0" r="15" fill="#424242"/>
  </g>
</svg>