<?xml version="1.0" encoding="UTF-8"?>
<svg xmlns="http://www.w3.org/2000/svg" viewBox="0 0 800 600">
  <defs>
    <linearGradient id="bg" x1="0%" y1="0%" x2="100%" y2="100%">
      <stop offset="0%" style="stop-color:#f5f5f5"/>
      <stop offset="100%" style="stop-color:#e0e0e0"/>
    </linearGradient>
    <linearGradient id="metal" x1="0%" y1="0%" x2="100%" y2="100%">
      <stop offset="0%" style="stop-color:#9e9e9e"/>
      <stop offset="100%" style="stop-color:#757575"/>
    </linearGradient>
  </defs>
  
  <!-- Background -->
  <rect width="800" height="600" fill="url(#bg)"/>
  
  <!-- Engine Block -->
  <path d="M200 200 h400 v250 h-400 z" fill="url(#metal)" stroke="#424242" stroke-width="4"/>
  
  <!-- Cylinders -->
  <g fill="#616161" stroke="#424242" stroke-width="2">
    <circle cx="300" cy="300" r="40"/>
    <circle cx="400" cy="300" r="40"/>
    <circle cx="500" cy="300" r="40"/>
  </g>
  
  <!-- Pistons -->
  <g fill="#9e9e9e" stroke="#757575" stroke-width="2">
    <rect x="280" y="270" width="40" height="100" rx="5"/>
    <rect x="380" y="290" width="40" height="100" rx="5"/>
    <rect x="480" y="250" width="40" height="100" rx="5"/>
  </g>
  
  <!-- Gears -->
  <g fill="#757575" stroke="#616161" stroke-width="3">
    <circle cx="250" cy="400" r="30"/>
    <circle cx="550" cy="400" r="30"/>
  </g>
  
  <!-- Sparkplugs -->
  <g fill="#9e9e9e" stroke="#616161" stroke-width="2">
    <path d="M300 200 v-30 h10 v30" />
    <path d="M400 200 v-30 h10 v30" />
    <path d="M500 200 v-30 h10 v30" />
  </g>
  
  <!-- Tools -->
  <g transform="translate(650,150) rotate(45)">
    <rect width="20" height="100" fill="#f44336" rx="5"/>
    <rect x="-5" y="80" width="30" height="30" fill="#d32f2f" rx="5"/>
  </g>
</svg>