<?xml version="1.0" encoding="UTF-8"?>
<svg width="800" height="600" viewBox="0 0 800 600" xmlns="http://www.w3.org/2000/svg">
    <!-- 车间背景 -->
    <rect x="0" y="0" width="800" height="600" fill="#f0f0f0"/>
    
    <!-- 地面 -->
    <rect x="0" y="400" width="800" height="200" fill="#d3d3d3"/>
    
    <!-- 维修升降台 -->
    <rect x="100" y="300" width="300" height="200" fill="#4a90e2"/>
    <rect x="150" y="280" width="200" height="20" fill="#2c3e50"/>
    
    <!-- 工具墙 -->
    <rect x="600" y="100" width="150" height="400" fill="#95a5a6"/>
    <circle cx="650" cy="150" r="10" fill="#e74c3c"/>
    <circle cx="700" cy="150" r="10" fill="#e74c3c"/>
    <rect x="630" y="200" width="90" height="5" fill="#7f8c8d"/>
    <rect x="630" y="250" width="90" height="5" fill="#7f8c8d"/>
    <rect x="630" y="300" width="90" height="5" fill="#7f8c8d"/>
    
    <!-- 工作台 -->
    <rect x="50" y="150" width="200" height="80" fill="#34495e"/>
    
    <!-- 照明 -->
    <rect x="100" y="0" width="10" height="100" fill="#95a5a6"/>
    <rect x="400" y="0" width="10" height="100" fill="#95a5a6"/>
    <rect x="700" y="0" width="10" height="100" fill="#95a5a6"/>
    
    <!-- 汽车轮廓 -->
    <path d="M150 320 Q 250 320 350 320 L 350 380 Q 250 380 150 380 Z" fill="#3498db"/>
    
    <!-- 工具箱 -->
    <rect x="450" y="350" width="100" height="80" fill="#e74c3c"/>
    <rect x="460" y="360" width="80" height="5" fill="#c0392b"/>
    <rect x="460" y="375" width="80" height="5" fill="#c0392b"/>
</svg>